PathFileType	4	(X/Y/Z)	KinectSkeleton.trc																																																	
DataRate	CameraRate	NumFrames	NumMarkers	Units	OrigDataRate	OrigDataStartFrame	OrigNumFrames																																													
60	60	10	17	mm	60	61	300																																													
Frame#	Time	Neck			ShoulderMid			R.Shoulder			L.Shoulder			R.Elbow			L.Elbow			R.Wrist			L.Wrist			HipCenter			R.Hip			L.Hip			R.Knee			L.Knee			R.Ankle			L.Ankle			R.Foot			L.Foot		
		X1	Y1	Z1	X2	Y2	Z2	X3	Y3	Z3	X4	Y4	Z4	X5	Y5	Z5	X6	Y6	Z6	X7	Y7	Z7	X8	Y8	Z8	X9	Y9	Z9	X10	Y10	Z10	X11	Y11	Z11	X12	Y12	Z12	X13	Y13	Z13	X14	Y14	Z14	X15	Y15	Z15	X16	Y16	Z16	X17	Y17	Z17
																																																				
61	4.267	-1949.221	521.733	-380.75	-1949.221	521.733	-380.75	-1966.955	563.141	-205.885	-1892.194	378.089	-489.886	-1936.779	611.938	79.129	-1674.751	277.561	-644.895	-1804.376	707.516	258.427	-1460.149	269.362	-750.868	-1807.614	93.628	-71.03	-1805.534	142.544	-1.672	-1809.92	39.383	-147.946	-1421.842	9.142	72.377	-1726.417	-356.743	-64.407	-1063.145	-149.456	146.837	-1995.528	-620.311	-183.453	-1024.973	6.518	70.103	-1817.468	-695.78	-187.467
62	4.344	-1941.318	549.962	-366.922	-1941.318	549.962	-366.922	-1961.708	589.877	-193.292	-1878.887	413.251	-479.878	-1944.614	626.995	93.531	-1653.581	322.047	-627.421	-1821.643	715.717	281.71	-1432.47	329.036	-716.946	-1814.978	111.078	-67.983	-1812.203	157.859	2.455	-1818.056	59.2	-146.096	-1438.126	3.507	76.997	-1741.36	-337.329	-65.091	-1090.747	-175.252	152.013	-1994.367	-615.986	-180.479	-1015.395	-38.848	67.34	-1818.737	-694.969	-189.021
63	4.406	-1934.992	582.055	-354.673	-1934.992	582.055	-354.673	-1953.471	611.848	-180.731	-1874.886	448.064	-468.537	-1938.847	644.082	103.022	-1650.157	356.508	-609.515	-1824.827	723.538	296.881	-1433.013	369.09	-699.912	-1836.469	133.691	-70.307	-1842.129	176.099	1.401	-1830.192	86.661	-149.829	-1462.697	48.355	69.608	-1748.553	-303.991	-72.237	-1259.68	-278.144	149.273	-1976.769	-597.16	-185.994	-1099.279	-216.015	116.838	-1821.859	-707.547	-182.221
64	4.48	-1930.391	614.741	-344.655	-1930.391	614.741	-344.655	-1947.219	636.028	-169.629	-1870.231	485.344	-461.634	-1934.988	655.067	114.056	-1650.469	391.163	-606.01	-1821.438	721.895	311.525	-1432.244	398.973	-691.275	-1860.12	156.232	-69.082	-1869.739	196.156	3.166	-1849.452	111.958	-149.202	-1495.902	57.623	69.668	-1763.101	-279.017	-90.873	-1223.268	-217.494	121.409	-1969.089	-594.139	-179.19	-1054.957	-173.177	113.936	-1832.71	-725.415	-183.585
65	4.544	-1923.272	652.299	-330.09	-1923.272	652.299	-330.09	-1938.567	667.667	-154.799	-1868.517	527.242	-455.058	-1926.498	670.697	129.788	-1654.704	420.144	-599.878	-1816.15	725.995	332.83	-1435.368	429.688	-682.696	-1868.799	180.835	-73.322	-1876.003	219.731	-0.147	-1860.81	137.701	-154.471	-1524.566	32.391	71.095	-1790.353	-257.924	-103.982	-1268.017	-257.142	128.888	-1973.699	-589.223	-184.255	-1095.967	-231.574	116.584	-1839.155	-722.545	-190.829
66	4.614	-1919.141	690.801	-315.425	-1919.141	690.801	-315.425	-1929.642	693.727	-137.527	-1871.401	565.631	-444.536	-1916.081	681.632	147.429	-1662.815	459.748	-598.845	-1800.756	723.941	351.488	-1442.867	465.481	-681.972	-1879.91	207.389	-71.782	-1888.672	243.869	2.681	-1870.193	166.934	-154.359	-1562.544	14.57	76.987	-1831.259	-236.021	-123.955	-1371.859	-323.455	132.613	-1982.126	-588.331	-184.358	-1197.561	-328.296	144.768	-1838.829	-712.879	-191.077
67	4.665	-1907.884	718.564	-291.878	-1907.884	718.564	-291.878	-1919.607	719.292	-116.279	-1866.662	608.116	-433.01	-1902.614	694.293	166.293	-1666.525	500.835	-594.952	-1781.378	713.942	369.048	-1452.26	510.37	-688.747	-1881.387	222.837	-75.102	-1880.25	257.167	0.442	-1882.649	184.767	-158.877	-1582.879	-6.499	70.85	-1870.56	-218.723	-141.353	-1542.628	-390.975	123.975	-1999.925	-579.881	-185.399	-1376.148	-441.254	119.609	-1858.704	-705.509	-190.395
68	4.727	-1901.995	743.047	-271.63	-1901.995	743.047	-271.63	-1910.566	736.611	-94.186	-1867.474	637.01	-420.17	-1888.28	691.605	188.258	-1671.604	530.212	-591.921	-1762.607	696.577	391.838	-1457.213	529.718	-691.302	-1894.698	230.491	-78.01	-1896.396	260.288	0.265	-1892.814	197.446	-164.813	-1638.932	-47.836	69.379	-1896.107	-210.288	-154.581	-1651.537	-440.113	102.852	-2006.596	-582.588	-188.23	-1499.015	-526.247	115.357	-1858.644	-703.106	-192.242
69	4.789	-1900.321	748.114	-262.066	-1900.321	748.114	-262.066	-1904.138	740.682	-83.686	-1870.053	651.046	-416.797	-1878.68	687.144	198.58	-1669.998	549.597	-589.464	-1750.881	685.5	402.413	-1454.038	552.65	-688.445	-1896.725	229.565	-76.257	-1899.581	257.887	3.011	-1893.558	198.157	-164.162	-1665.115	-72.349	64.443	-1907.494	-211.634	-157.637	-1717.153	-463.561	97.401	-2016.458	-586.75	-189.389	-1570.152	-560.511	110.2	-1862.224	-700.903	-191.847
70	4.867	-1886.206	750.878	-230.414	-1886.206	750.878	-230.414	-1893.044	727.434	-54.511	-1870.541	647.835	-386.203	-1856.734	667.023	223.135	-1691.624	563.292	-585.897	-1727.427	664.038	424.047	-1473.953	577.822	-675.811	-1902.936	226.772	-76.032	-1904.899	251.68	3.797	-1900.758	199.149	-164.561	-1725.034	-108.835	60.322	-1919.345	-207.652	-171.038	-1821.149	-489.719	80.185	-2012.737	-585.172	-187.091	-1708.449	-623.896	86.766	-1860.682	-700.024	-190.588
